<mxfile host="app.diagrams.net" modified="2024-06-19T12:49:41.341Z" agent="Mozilla/5.0 (Windows NT 10.0; Win64; x64) AppleWebKit/537.36 (KHTML, like Gecko) Chrome/126.0.0.0 Safari/537.36" etag="Xu3vvFYqdbwCia9WoUHt" version="24.5.5" type="github">
  <diagram name="Страница — 1" id="HPxr1YhvrDYkWpEFoF1q">
    <mxGraphModel dx="1688" dy="637" grid="1" gridSize="10" guides="1" tooltips="1" connect="1" arrows="1" fold="1" page="1" pageScale="1" pageWidth="827" pageHeight="1169" math="0" shadow="0">
      <root>
        <mxCell id="0" />
        <mxCell id="1" parent="0" />
        <mxCell id="SbZxYmc5leifwCl22_EH-1" value="" style="html=1;verticalLabelPosition=bottom;align=center;labelBackgroundColor=#ffffff;verticalAlign=top;strokeWidth=2;strokeColor=#0080F0;shadow=0;dashed=0;shape=mxgraph.ios7.icons.smartphone;" vertex="1" parent="1">
          <mxGeometry x="100" y="370" width="30" height="70" as="geometry" />
        </mxCell>
        <mxCell id="SbZxYmc5leifwCl22_EH-7" value="Telegram&lt;div&gt;User&lt;/div&gt;&lt;div&gt;Service&lt;/div&gt;" style="html=1;points=[[0,0,0,0,5],[0,1,0,0,-5],[1,0,0,0,5],[1,1,0,0,-5]];perimeter=orthogonalPerimeter;outlineConnect=0;targetShapes=umlLifeline;portConstraint=eastwest;newEdgeStyle={&quot;curved&quot;:0,&quot;rounded&quot;:0};" vertex="1" parent="1">
          <mxGeometry x="250" y="280" width="70" height="270" as="geometry" />
        </mxCell>
        <mxCell id="SbZxYmc5leifwCl22_EH-8" value="get user products&lt;div&gt;from catalog&lt;/div&gt;" style="html=1;verticalAlign=bottom;endArrow=block;curved=0;rounded=0;exitX=1;exitY=0;exitDx=0;exitDy=0;exitPerimeter=0;" edge="1" target="SbZxYmc5leifwCl22_EH-7" parent="1" source="SbZxYmc5leifwCl22_EH-1">
          <mxGeometry relative="1" as="geometry">
            <mxPoint x="180" y="370" as="sourcePoint" />
          </mxGeometry>
        </mxCell>
        <mxCell id="SbZxYmc5leifwCl22_EH-9" value="return user products&lt;div&gt;from catalog&lt;/div&gt;" style="html=1;verticalAlign=bottom;endArrow=open;dashed=1;endSize=8;curved=0;rounded=0;entryX=1.056;entryY=0.99;entryDx=0;entryDy=0;entryPerimeter=0;" edge="1" source="SbZxYmc5leifwCl22_EH-7" parent="1" target="SbZxYmc5leifwCl22_EH-1">
          <mxGeometry relative="1" as="geometry">
            <mxPoint x="180" y="440" as="targetPoint" />
          </mxGeometry>
        </mxCell>
        <mxCell id="SbZxYmc5leifwCl22_EH-10" value="&lt;span style=&quot;font-size: 11px; background-color: rgb(255, 255, 255);&quot;&gt;catalog&amp;nbsp;&lt;/span&gt;&lt;div&gt;&lt;span style=&quot;font-size: 11px; background-color: rgb(255, 255, 255);&quot;&gt;gateway&lt;/span&gt;&lt;/div&gt;" style="html=1;points=[[0,0,0,0,5],[0,1,0,0,-5],[1,0,0,0,5],[1,1,0,0,-5]];perimeter=orthogonalPerimeter;outlineConnect=0;targetShapes=umlLifeline;portConstraint=eastwest;newEdgeStyle={&quot;curved&quot;:0,&quot;rounded&quot;:0};" vertex="1" parent="1">
          <mxGeometry x="550" y="280" width="60" height="270" as="geometry" />
        </mxCell>
        <mxCell id="SbZxYmc5leifwCl22_EH-11" value="dispatch product&amp;nbsp;&lt;div&gt;catalog gateway&lt;/div&gt;" style="html=1;verticalAlign=bottom;endArrow=block;curved=0;rounded=0;" edge="1" target="SbZxYmc5leifwCl22_EH-10" parent="1">
          <mxGeometry relative="1" as="geometry">
            <mxPoint x="320" y="370" as="sourcePoint" />
            <mxPoint as="offset" />
          </mxGeometry>
        </mxCell>
        <mxCell id="SbZxYmc5leifwCl22_EH-12" value="return" style="html=1;verticalAlign=bottom;endArrow=open;dashed=1;endSize=8;curved=0;rounded=0;exitX=0;exitY=1;exitDx=0;exitDy=-5;" edge="1" parent="1">
          <mxGeometry relative="1" as="geometry">
            <mxPoint x="320" y="520" as="targetPoint" />
            <mxPoint x="550" y="520" as="sourcePoint" />
            <Array as="points">
              <mxPoint x="320" y="520" />
            </Array>
          </mxGeometry>
        </mxCell>
        <mxCell id="SbZxYmc5leifwCl22_EH-18" value="" style="html=1;verticalAlign=bottom;endArrow=block;rounded=0;edgeStyle=orthogonalEdgeStyle;" edge="1" parent="1">
          <mxGeometry relative="1" as="geometry">
            <mxPoint x="610" y="370" as="sourcePoint" />
            <mxPoint x="1080" y="520" as="targetPoint" />
            <mxPoint as="offset" />
          </mxGeometry>
        </mxCell>
        <mxCell id="SbZxYmc5leifwCl22_EH-21" value="Get products from&amp;nbsp;&lt;div&gt;catalog&lt;/div&gt;" style="text;html=1;align=center;verticalAlign=middle;resizable=0;points=[];autosize=1;strokeColor=none;fillColor=none;" vertex="1" parent="1">
          <mxGeometry x="650" y="320" width="120" height="40" as="geometry" />
        </mxCell>
        <mxCell id="SbZxYmc5leifwCl22_EH-24" value="Enrich with&amp;nbsp;&lt;div&gt;Balances&lt;/div&gt;" style="text;html=1;align=center;verticalAlign=middle;resizable=0;points=[];autosize=1;strokeColor=none;fillColor=none;" vertex="1" parent="1">
          <mxGeometry x="610" y="600" width="90" height="40" as="geometry" />
        </mxCell>
        <mxCell id="SbZxYmc5leifwCl22_EH-25" value="" style="endArrow=none;html=1;rounded=0;dashed=1;dashPattern=1 2;" edge="1" parent="1">
          <mxGeometry relative="1" as="geometry">
            <mxPoint x="720.4200000000001" y="370" as="sourcePoint" />
            <mxPoint x="720" y="595" as="targetPoint" />
          </mxGeometry>
        </mxCell>
        <mxCell id="SbZxYmc5leifwCl22_EH-26" value="1" style="resizable=0;html=1;whiteSpace=wrap;align=right;verticalAlign=bottom;" connectable="0" vertex="1" parent="SbZxYmc5leifwCl22_EH-25">
          <mxGeometry x="1" relative="1" as="geometry" />
        </mxCell>
        <mxCell id="SbZxYmc5leifwCl22_EH-27" value="Enrich with&amp;nbsp;&lt;div&gt;Lobels&lt;/div&gt;" style="text;html=1;align=center;verticalAlign=middle;resizable=0;points=[];autosize=1;strokeColor=none;fillColor=none;" vertex="1" parent="1">
          <mxGeometry x="680" y="600" width="90" height="40" as="geometry" />
        </mxCell>
        <mxCell id="SbZxYmc5leifwCl22_EH-28" value="return" style="html=1;verticalAlign=bottom;endArrow=open;dashed=1;endSize=8;curved=0;rounded=0;" edge="1" parent="1">
          <mxGeometry x="-0.3617" y="-10" relative="1" as="geometry">
            <mxPoint x="610" y="520" as="targetPoint" />
            <mxPoint x="1080" y="520" as="sourcePoint" />
            <Array as="points">
              <mxPoint x="610" y="520" />
            </Array>
            <mxPoint as="offset" />
          </mxGeometry>
        </mxCell>
        <mxCell id="SbZxYmc5leifwCl22_EH-29" value="&lt;span style=&quot;font-size: 11px; background-color: rgb(255, 255, 255);&quot;&gt;catalog&amp;nbsp;&lt;/span&gt;&lt;div&gt;&lt;span style=&quot;font-size: 11px; background-color: rgb(255, 255, 255);&quot;&gt;service&lt;/span&gt;&lt;/div&gt;&lt;div&gt;&lt;span style=&quot;font-size: 11px; background-color: rgb(255, 255, 255);&quot;&gt;&lt;br&gt;&lt;/span&gt;&lt;/div&gt;" style="html=1;points=[[0,0,0,0,5],[0,1,0,0,-5],[1,0,0,0,5],[1,1,0,0,-5]];perimeter=orthogonalPerimeter;outlineConnect=0;targetShapes=umlLifeline;portConstraint=eastwest;newEdgeStyle={&quot;curved&quot;:0,&quot;rounded&quot;:0};" vertex="1" parent="1">
          <mxGeometry x="770" y="280" width="60" height="270" as="geometry" />
        </mxCell>
        <mxCell id="SbZxYmc5leifwCl22_EH-30" value="" style="endArrow=none;html=1;rounded=0;dashed=1;dashPattern=1 2;" edge="1" parent="1">
          <mxGeometry relative="1" as="geometry">
            <mxPoint x="660.4200000000001" y="370" as="sourcePoint" />
            <mxPoint x="660" y="595" as="targetPoint" />
          </mxGeometry>
        </mxCell>
        <mxCell id="SbZxYmc5leifwCl22_EH-31" value="2" style="resizable=0;html=1;whiteSpace=wrap;align=right;verticalAlign=bottom;" connectable="0" vertex="1" parent="SbZxYmc5leifwCl22_EH-30">
          <mxGeometry x="1" relative="1" as="geometry" />
        </mxCell>
        <mxCell id="SbZxYmc5leifwCl22_EH-33" value="" style="html=1;verticalAlign=bottom;endArrow=block;curved=0;rounded=0;" edge="1" parent="1">
          <mxGeometry relative="1" as="geometry">
            <mxPoint x="610" y="370" as="sourcePoint" />
            <mxPoint x="770" y="370" as="targetPoint" />
            <mxPoint as="offset" />
          </mxGeometry>
        </mxCell>
      </root>
    </mxGraphModel>
  </diagram>
</mxfile>
